<svg width="145" height="142" viewBox="0 0 145 142" fill="none" xmlns="http://www.w3.org/2000/svg">
<path d="M82 70C82 75.5 77.5 80 72 80C66.5 80 62 75.5 62 70C62 64.5 66.5 60 72 60C77.5 60 82 64.5 82 70Z" fill="#EB0808"/>
<path d="M29.6 62.7C28 78.9 35.1999 94 47.2999 103.2C53.6999 108 61.5 111.3 70 112.1C72.2 112.3 73.8999 114.3 73.5999 116.5C73.2999 118.9 71.3 120.4 69.2 120.1C59.9 119.2 51.3999 115.9 44.2999 110.9C28.9 100.2 19.5 81.7 21.5 61.8C21.7017 59.6475 22.0393 57.5855 22.5126 55.5532C22.8933 53.918 21.9729 52.2289 20.3561 51.7767L12.3167 49.5284C11.7827 49.3791 11.2173 49.3791 10.686 49.538C7.96849 50.3505 5.26499 51.3394 2.71618 52.4577C1.82318 52.8495 1.1951 53.6705 1.04049 54.6333C0.393323 58.6637 -4.57764e-05 62.8425 -4.57764e-05 67.1C-4.57764e-05 104.5 27.5999 135.5 63.5999 140.8C67.8999 141.4 72.3 141.5 75.5 140.7C80.6 139.4 85 136.6 88.4 132.8C92.4 128.3 94.7 122.4 94.7 116C94.7 104.6 87.3 95 77 91.7C75.1 91.1 72.0999 90.8 70.5999 90.6C70.5334 90.6 70.4667 90.5944 70.4011 90.583C59.2494 88.6417 50.7 78.7656 50.7 67.1C50.7 63.4446 51.5468 59.9707 53.0523 56.8194C53.7656 55.3263 53.3685 53.4825 51.9711 52.5963L46.7012 49.2545C46.4354 49.0859 46.1448 48.9597 45.8394 48.8836C42.7124 48.1039 39.4604 47.5181 36.1342 47.177C34.9085 47.0513 33.742 47.727 33.2554 48.859C31.4084 53.1557 30.1235 57.8136 29.6 62.7Z" fill="#EB0808"/>
<path d="M115.1 78.575C116.7 62.375 109.5 47.275 97.4 38.075C91 33.275 83.2 29.975 74.7 29.175C72.5 28.975 70.8 26.975 71.1 24.775C71.4 22.375 73.4 20.875 75.5 21.175C84.8 22.075 93.3 25.375 100.4 30.375C115.8 41.075 125.2 59.575 123.2 79.475C122.998 81.6275 122.661 83.6895 122.187 85.7218C121.807 87.357 122.727 89.0461 124.344 89.4983L132.383 91.7466C132.917 91.8959 133.483 91.8959 134.014 91.737C136.731 90.9245 139.435 89.9357 141.984 88.8173C142.877 88.4255 143.505 87.6046 143.659 86.6417C144.307 82.6113 144.7 78.4325 144.7 74.175C144.7 36.775 117.1 5.775 81.1 0.474999C76.8 -0.125001 72.4 -0.224999 69.2 0.575001C64.1 1.875 59.7 4.675 56.3 8.475C52.3 12.975 50 18.875 50 25.275C50 36.675 57.4 46.275 67.7 49.575C69.6 50.175 72.6 50.475 74.1 50.675C74.1666 50.675 74.2333 50.6806 74.2989 50.692C85.4506 52.6333 94 62.5094 94 74.175C94 77.8304 93.1532 81.3043 91.6477 84.4556C90.9344 85.9487 91.3315 87.7925 92.7289 88.6787L97.9987 92.0206C98.2646 92.1891 98.5551 92.3153 98.8606 92.3915C101.988 93.1711 105.24 93.757 108.566 94.098C109.791 94.2237 110.958 93.548 111.445 92.416C113.292 88.1194 114.576 83.4614 115.1 78.575Z" fill="#EB0808"/>
</svg>
