<svg width="572" height="142" viewBox="0 0 572 142" fill="none" xmlns="http://www.w3.org/2000/svg">
<path d="M82 70C82 75.5 77.5 80 72 80C66.5 80 62 75.5 62 70C62 64.5 66.5 60 72 60C77.5 60 82 64.5 82 70Z" fill="#EB0808"/>
<path d="M29.6 62.7C28 78.9 35.1999 94 47.2999 103.2C53.6999 108 61.5 111.3 70 112.1C72.2 112.3 73.8999 114.3 73.5999 116.5C73.2999 118.9 71.3 120.4 69.2 120.1C59.9 119.2 51.3999 115.9 44.2999 110.9C28.9 100.2 19.5 81.7 21.5 61.8C21.7017 59.6475 22.0393 57.5855 22.5126 55.5532C22.8933 53.918 21.9729 52.2289 20.3561 51.7767L12.3167 49.5284C11.7827 49.3791 11.2173 49.3791 10.686 49.538C7.96849 50.3505 5.26499 51.3394 2.71618 52.4577C1.82318 52.8495 1.1951 53.6705 1.04049 54.6333C0.393323 58.6637 -4.57764e-05 62.8425 -4.57764e-05 67.1C-4.57764e-05 104.5 27.5999 135.5 63.5999 140.8C67.8999 141.4 72.3 141.5 75.5 140.7C80.6 139.4 85 136.6 88.4 132.8C92.4 128.3 94.7 122.4 94.7 116C94.7 104.6 87.3 95 77 91.7C75.1 91.1 72.0999 90.8 70.5999 90.6C70.5334 90.6 70.4667 90.5944 70.4011 90.583C59.2494 88.6417 50.7 78.7656 50.7 67.1C50.7 63.4446 51.5468 59.9707 53.0523 56.8194C53.7656 55.3263 53.3685 53.4825 51.9711 52.5963L46.7012 49.2545C46.4354 49.0859 46.1448 48.9597 45.8394 48.8836C42.7124 48.1039 39.4604 47.5181 36.1342 47.177C34.9085 47.0513 33.742 47.727 33.2554 48.859C31.4084 53.1557 30.1235 57.8136 29.6 62.7Z" fill="#EB0808"/>
<path d="M115.1 78.575C116.7 62.375 109.5 47.275 97.4 38.075C91 33.275 83.2 29.975 74.7 29.175C72.5 28.975 70.8 26.975 71.1 24.775C71.4 22.375 73.4 20.875 75.5 21.175C84.8 22.075 93.3 25.375 100.4 30.375C115.8 41.075 125.2 59.575 123.2 79.475C122.998 81.6275 122.661 83.6895 122.187 85.7218C121.807 87.357 122.727 89.0461 124.344 89.4983L132.383 91.7466C132.917 91.8959 133.483 91.8959 134.014 91.737C136.731 90.9245 139.435 89.9357 141.984 88.8173C142.877 88.4255 143.505 87.6046 143.659 86.6417C144.307 82.6113 144.7 78.4325 144.7 74.175C144.7 36.775 117.1 5.775 81.1 0.474999C76.8 -0.125001 72.4 -0.224999 69.2 0.575001C64.1 1.875 59.7 4.675 56.3 8.475C52.3 12.975 50 18.875 50 25.275C50 36.675 57.4 46.275 67.7 49.575C69.6 50.175 72.6 50.475 74.1 50.675C74.1666 50.675 74.2333 50.6806 74.2989 50.692C85.4506 52.6333 94 62.5094 94 74.175C94 77.8304 93.1532 81.3043 91.6477 84.4556C90.9344 85.9487 91.3315 87.7925 92.7289 88.6787L97.9987 92.0206C98.2646 92.1891 98.5551 92.3153 98.8606 92.3915C101.988 93.1711 105.24 93.757 108.566 94.098C109.791 94.2237 110.958 93.548 111.445 92.416C113.292 88.1194 114.576 83.4614 115.1 78.575Z" fill="#EB0808"/>
<path d="M191.104 106C190.784 106 190.624 105.84 190.624 105.52V39.28C190.624 38.96 190.784 38.8 191.104 38.8H242.56C242.88 38.8 243.04 38.96 243.04 39.28V51.184C243.04 51.504 242.88 51.664 242.56 51.664H206.368V65.776H233.344C233.664 65.776 233.824 65.936 233.824 66.256V78.064C233.824 78.384 233.664 78.544 233.344 78.544H206.368V92.848H245.248C245.504 92.848 245.632 93.008 245.632 93.328L243.904 105.52C243.904 105.84 243.712 106 243.328 106H191.104ZM256.289 79.6C255.969 79.6 255.809 79.44 255.809 79.12V66.832C255.809 66.512 255.969 66.352 256.289 66.352H287.393C287.713 66.352 287.873 66.512 287.873 66.832V79.12C287.873 79.44 287.713 79.6 287.393 79.6H256.289ZM308.231 106C307.975 106 307.751 105.904 307.559 105.712L299.495 97.552C299.303 97.36 299.207 97.136 299.207 96.88V84.688C299.207 84.368 299.367 84.208 299.687 84.208H314.375C314.695 84.208 314.855 84.368 314.855 84.688V90.64L317.063 92.848H339.719L341.927 90.64V80.176L339.719 77.968H307.559C307.303 77.968 307.079 77.872 306.887 77.68L298.631 69.424C298.439 69.232 298.343 69.008 298.343 68.752V48.016C298.343 47.76 298.439 47.536 298.631 47.344L306.887 39.088C307.079 38.896 307.303 38.8 307.559 38.8H347.687C347.943 38.8 348.167 38.896 348.359 39.088L356.615 47.344C356.807 47.536 356.903 47.76 356.903 48.016V59.44C356.903 59.76 356.743 59.92 356.423 59.92H341.543C341.223 59.92 341.063 59.76 341.063 59.44V53.872L338.855 51.664H316.295L314.087 53.872V62.704L316.583 65.104H348.551C348.807 65.104 349.031 65.2 349.223 65.392L357.479 73.648C357.671 73.84 357.767 74.064 357.767 74.32V96.88C357.767 97.136 357.671 97.36 357.479 97.552L349.223 105.712C349.031 105.904 348.807 106 348.551 106H308.231ZM371.479 106C371.159 106 370.999 105.84 370.999 105.52V39.28C370.999 38.96 371.159 38.8 371.479 38.8H419.383C419.639 38.8 419.863 38.896 420.055 39.088L428.311 47.344C428.503 47.536 428.599 47.76 428.599 48.016V78.544C428.599 78.8 428.503 79.024 428.311 79.216L420.055 87.28C419.863 87.472 419.639 87.568 419.383 87.568H386.743V105.52C386.743 105.84 386.583 106 386.263 106H371.479ZM386.743 74.128H410.647L412.855 71.536V53.872L410.647 51.664H386.743V74.128ZM443.218 106C442.898 106 442.738 105.84 442.738 105.52V39.28C442.738 38.96 442.898 38.8 443.218 38.8H456.85C457.17 38.8 457.33 38.96 457.33 39.28V105.52C457.33 105.84 457.17 106 456.85 106H443.218ZM471.885 106C471.565 106 471.405 105.84 471.405 105.52V39.28C471.405 38.96 471.565 38.8 471.885 38.8H487.053C487.309 38.8 487.501 38.896 487.629 39.088L512.685 78.736H513.645V39.28C513.645 38.96 513.805 38.8 514.125 38.8H528.813C529.133 38.8 529.293 38.96 529.293 39.28V105.52C529.293 105.84 529.133 106 528.813 106H513.741C513.485 106 513.293 105.904 513.165 105.712L488.109 65.968H487.149V105.52C487.149 105.84 486.989 106 486.669 106H471.885Z" fill="black"/>
</svg>
