<svg width="145" height="137" viewBox="0 0 145 137" fill="none" xmlns="http://www.w3.org/2000/svg">
<path d="M80 67C80 72.5 75.5 77 70 77C64.5 77 60 72.5 60 67C60 61.5 64.5 57 70 57C75.5 57 80 61.5 80 67Z" fill="#EB0808"/>
<path d="M29.6 57.7C28 73.9 35.1999 89 47.2999 98.2C53.6999 103 61.5 106.3 70 107.1C72.2 107.3 73.8999 109.3 73.5999 111.5C73.2999 113.9 71.3 115.4 69.2 115.1C59.9 114.2 51.3999 110.9 44.2999 105.9C28.9 95.2 19.5 76.7 21.5 56.8C21.8 53.6 22.4 50.6 23.3 47.6L11.5 44.3C7.99995 45.3 4.49996 46.6 1.29996 48.1C0.499957 52.6 -4.57764e-05 57.3 -4.57764e-05 62.1C-4.57764e-05 99.5 27.5999 130.5 63.5999 135.8C67.8999 136.4 72.3 136.5 75.5 135.7C80.6 134.4 85 131.6 88.4 127.8C92.4 123.3 94.7 117.4 94.7 111C94.7 99.6 87.3 90 77 86.7C75.1 86.1 72.0999 85.8 70.5999 85.6H70.5C59.3 83.7 50.7 73.8 50.7 62.1C50.7 57.4 52.1 53 54.5 49.2L46.2999 44C42.3999 43 38.2999 42.3 34.0999 42C31.7999 46.8 30.2 52.1 29.6 57.7Z" fill="#EB0808"/>
<path d="M115.1 78.575C116.7 62.375 109.5 47.275 97.4 38.075C91 33.275 83.2 29.975 74.7 29.175C72.5 28.975 70.8 26.975 71.1 24.775C71.4 22.375 73.4 20.875 75.5 21.175C84.8 22.075 93.3 25.375 100.4 30.375C115.8 41.075 125.2 59.575 123.2 79.475C122.9 82.675 122.3 85.675 121.4 88.675L133.2 91.975C136.7 90.975 140.2 89.675 143.4 88.175C144.2 83.675 144.7 78.975 144.7 74.175C144.7 36.775 117.1 5.775 81.1 0.474999C76.8 -0.125001 72.4 -0.224999 69.2 0.575001C64.1 1.875 59.7 4.675 56.3 8.475C52.3 12.975 50 18.875 50 25.275C50 36.675 57.4 46.275 67.7 49.575C69.6 50.175 72.6 50.475 74.1 50.675H74.2C85.4 52.575 94 62.475 94 74.175C94 78.875 92.6 83.275 90.2 87.075L98.4 92.275C102.3 93.275 106.4 93.975 110.6 94.275C112.9 89.475 114.5 84.175 115.1 78.575Z" fill="#EB0808"/>
</svg>
